<svg id="Layer_1" data-name="Layer 1" xmlns="http://www.w3.org/2000/svg" viewBox="0 0 105.01 22"><defs><style>.cls-1{fill:#fff;opacity:0;}.cls-2,.cls-3{fill:#f2b33d;}.cls-3{opacity:0.5;}</style></defs><title>logo</title><rect class="cls-1" x="0.01" width="105" height="22"/><path class="cls-2" d="M10.81,11,0,.12V21.88H21.75Z" transform="translate(0.01)"/><path class="cls-2" d="M24.85,11V21.88H35V11Z" transform="translate(0.01)"/><path class="cls-2" d="M38.09.12V10.27H55.27V.12Z" transform="translate(0.01)"/><path class="cls-2" d="M70.26.12V7.9h0v7h0v6.94h9.87V.12ZM58.38,21.88h9.87V.12H58.38Z" transform="translate(0.01)"/><path class="cls-2" d="M94.12.12A10.88,10.88,0,1,0,105,11,10.88,10.88,0,0,0,94.12.12Zm0,15A4.08,4.08,0,1,1,98.19,11,4.08,4.08,0,0,1,94.12,15.08Z" transform="translate(0.01)"/><rect class="cls-3" x="24.86" y="0.12" width="10.14" height="10.88"/><rect class="cls-3" x="41.69" y="10.27" width="10.14" height="11.61"/><rect class="cls-3" x="68.26" y="7.9" width="2.01" height="7.05"/><polygon class="cls-3" points="21.75 0.12 21.75 21.88 10.82 11 21.75 0.12"/><circle class="cls-3" cx="94.12" cy="11" r="4.08"/></svg>